<?xml version="1.0" encoding="utf-8"?>
<!-- Generator: Adobe Illustrator 23.1.1, SVG Export Plug-In . SVG Version: 6.00 Build 0)  -->
<svg version="1.1" id="Camada_1" xmlns="http://www.w3.org/2000/svg" xmlns:xlink="http://www.w3.org/1999/xlink" x="0px" y="0px"
	 viewBox="0 0 30 8.65" style="enable-background:new 0 0 30 8.65;" xml:space="preserve">
<style type="text/css">
	.st0{fill:#FFFFFF;}
	.st1{font-family:'Open-Sans', sans-serif;}
	.st2{font-size:5.8498px;}
</style>
<g>
	<path class="st0" d="M9.93,2.09L6.76,0.88C6.68,0.85,6.6,0.89,6.57,0.96C6.54,1.04,6.58,1.13,6.66,1.16l2.81,1.07L7.52,2.97
		L5.08,1.86c-0.07-0.03-0.16,0-0.2,0.07c-0.03,0.07,0,0.16,0.07,0.2l2.17,0.98L5.01,3.92l-4.45-1.7l4.45-1.7l1.1,0.42
		C6.19,0.98,6.27,0.94,6.3,0.86C6.33,0.79,6.29,0.7,6.22,0.67L5.07,0.23C5.03,0.22,5,0.22,4.96,0.23L0.1,2.09
		C0.04,2.11,0,2.17,0,2.23v0.68c0,0.06,0.04,0.12,0.1,0.14l1.52,0.58v0.52c0,0.08,0.07,0.15,0.15,0.15c0.08,0,0.15-0.07,0.15-0.15
		v-0.4L4.96,4.9C4.98,4.91,5,4.91,5.01,4.91s0.04,0,0.05-0.01l2.3-0.88v2.36C6.64,6.76,5.83,6.96,5.01,6.96
		c-1.12,0-2.22-0.38-3.1-1.06V4.74c0-0.08-0.07-0.15-0.15-0.15c-0.08,0-0.15,0.07-0.15,0.15v1.23c0,0.05,0.02,0.09,0.06,0.12
		C2.62,6.84,3.8,7.26,5.01,7.26c0.82,0,1.62-0.19,2.35-0.55v0.6C7.12,7.38,6.95,7.6,6.95,7.86c0,0.31,0.25,0.57,0.57,0.57
		c0.31,0,0.57-0.25,0.57-0.57c0-0.26-0.18-0.48-0.42-0.55V6.56c0.24-0.14,0.48-0.3,0.69-0.47c0.04-0.03,0.06-0.07,0.06-0.12V3.63
		l1.52-0.58c0.06-0.02,0.1-0.08,0.1-0.14V2.23C10.03,2.17,9.99,2.11,9.93,2.09z M7.78,7.86c0,0.15-0.12,0.27-0.27,0.27
		c-0.15,0-0.27-0.12-0.27-0.27c0-0.15,0.12-0.27,0.27-0.27C7.66,7.6,7.78,7.72,7.78,7.86z M0.3,2.44l4.57,1.74v0.36L0.3,2.8V2.44z
		 M5.16,4.55V4.18l2.2-0.84v0.36L5.16,4.55z M8.12,5.9c-0.15,0.11-0.3,0.22-0.45,0.31v-2.3l0.45-0.17V5.9z M7.66,3.59V3.23
		l2.07-0.79V2.8L7.66,3.59z"/>
	<text transform="matrix(1 0 0 1 11.8198 6.5252)" class="st0 st1 st2">Cursos</text>
</g>
</svg>
